<svg version="1.1" id="Layer_1" xmlns="http://www.w3.org/2000/svg" xmlns:xlink="http://www.w3.org/1999/xlink" x="0px" y="0px"
	 width="100%" viewBox="0 0 918 637" enable-background="new 0 0 918 637" xml:space="preserve">
<path fill="#FFFFFF" opacity="1.000000" stroke="none" 
	d="
M479.000000,638.000000 
	C319.333344,638.000000 160.166672,638.000000 1.000000,638.000000 
	C1.000000,425.666656 1.000000,213.333328 1.000000,1.000000 
	C307.000000,1.000000 613.000000,1.000000 919.000000,1.000000 
	C919.000000,213.333328 919.000000,425.666656 919.000000,638.000000 
	C772.500000,638.000000 626.000000,638.000000 479.000000,638.000000 
M539.432373,249.968552 
	C539.852844,255.250824 540.860474,260.567322 540.554932,265.807281 
	C540.106812,273.493042 538.719177,281.123993 537.697754,289.042969 
	C543.351746,289.042969 548.333252,289.196899 553.292114,288.930206 
	C554.470825,288.866821 556.515869,287.454559 556.571960,286.562744 
	C557.613159,270.001801 558.455078,253.427658 559.231262,236.851257 
	C559.399414,233.261337 557.320190,232.026871 553.817749,232.068039 
	C545.342224,232.167709 536.863464,231.994537 528.084595,231.313583 
	C526.288513,221.279587 524.492432,211.245575 522.548462,200.385468 
	C512.928833,200.385468 503.624329,200.348114 494.320251,200.392487 
	C466.677185,200.524307 439.033661,200.623428 411.391846,200.891785 
	C405.515503,200.948822 400.617798,199.284943 396.695709,194.877686 
	C394.704163,192.639740 392.421539,190.610641 390.722961,188.171982 
	C386.354706,181.900314 380.317108,180.084213 372.988342,180.150253 
	C354.853088,180.313675 336.712860,180.206787 318.579468,179.912064 
	C316.521332,179.878586 313.929962,178.433807 312.553894,176.818665 
	C307.654907,171.068680 301.625671,168.136444 294.179169,168.731979 
	C284.444458,169.510513 276.629517,176.642502 275.072052,185.657883 
	C273.442047,195.093170 278.197968,204.145584 286.920807,208.210770 
	C295.702301,212.303299 305.926849,210.099731 312.050781,202.163452 
	C314.259766,199.300720 316.530212,198.174362 319.913574,198.199966 
	C336.559601,198.325851 353.221130,198.009323 369.842010,198.697693 
	C373.876892,198.864807 378.122437,201.766785 381.634399,204.295502 
	C384.512482,206.367813 386.403320,209.789963 388.805573,212.549515 
	C392.214478,216.465454 396.269440,219.087845 401.727020,219.061966 
	C419.533539,218.977539 437.340302,218.945496 455.147034,218.917160 
	C470.961426,218.891983 486.777069,218.805466 502.588654,219.014572 
	C504.467407,219.039429 507.438629,220.349564 507.957397,221.773102 
	C509.023041,224.697296 508.770142,228.101990 509.058319,231.291122 
	C506.016602,231.539673 503.716370,231.727631 500.426514,231.891022 
	C493.099640,231.910736 485.762482,231.719894 478.452148,232.077606 
	C476.238586,232.185913 473.488373,233.257431 472.042053,234.849182 
	C467.917419,239.388580 464.284454,244.382584 460.563660,249.278030 
	C458.503723,251.988235 456.095367,253.064285 452.539551,253.057190 
	C391.919495,252.936188 331.299133,252.951233 270.678925,253.027390 
	C267.612823,253.031235 265.628815,252.353073 263.686432,249.667587 
	C256.732208,240.052841 243.192307,238.692719 234.136810,246.348129 
	C225.438583,253.701508 224.448486,266.469299 231.925125,274.869202 
	C239.878250,283.804443 253.730408,284.734619 261.590454,275.951080 
	C265.523285,271.556152 269.243164,270.549194 274.859222,270.572144 
	C337.643463,270.828918 400.429230,270.763672 463.214081,270.594330 
	C465.222992,270.588928 467.716827,268.975159 469.139343,267.364624 
	C473.206970,262.759308 476.661041,257.611115 480.742096,253.019226 
	C482.088776,251.503983 484.555939,250.382523 486.606628,250.208115 
	C492.722198,249.687958 498.885315,249.726929 505.883606,249.682358 
	C508.652649,249.352188 509.150146,250.702347 508.919556,253.209000 
	C508.085602,262.275543 507.435303,271.359100 506.735229,280.437744 
	C506.526184,283.149109 506.381012,285.865417 506.200439,288.674622 
	C512.711426,288.674622 518.581848,288.674622 524.575806,288.674622 
	C525.867432,275.525757 527.122559,262.747620 528.430115,249.436203 
	C532.133728,249.436203 535.429688,249.436203 539.432373,249.968552 
M284.920227,330.797028 
	C278.465424,330.683197 271.976074,330.949615 265.563934,330.366669 
	C255.907379,329.488770 247.739853,331.718170 241.722946,339.741547 
	C238.130783,344.531555 234.686966,349.439362 230.928009,354.093567 
	C229.831131,355.451691 227.892624,356.952484 226.317810,356.977142 
	C207.029968,357.278992 187.737976,357.310730 168.447174,357.431702 
	C164.618805,357.455688 161.996445,356.154633 159.547562,352.740936 
	C152.718613,343.221527 138.829544,341.770355 129.820847,349.057526 
	C120.418419,356.663269 118.986259,369.902679 126.603249,378.802612 
	C134.599197,388.145355 149.084976,389.638245 157.104248,380.681366 
	C162.131348,375.066467 167.804474,375.309479 173.749695,375.307739 
	C192.883987,375.302185 212.018356,375.651062 231.152802,375.851685 
	C235.992065,375.902405 239.723557,373.985168 242.546341,369.929413 
	C246.157181,364.741425 249.799561,359.531799 253.935852,354.772614 
	C255.833862,352.588745 258.882538,350.193298 261.511017,350.070618 
	C271.642426,349.597656 281.814819,350.003601 292.046265,350.828918 
	C293.507294,354.349060 294.645538,358.047882 296.479401,361.361664 
	C314.237091,393.449188 337.847809,420.615509 367.271149,442.358948 
	C379.512756,451.405304 393.133026,458.655426 406.451660,466.143829 
	C412.523621,469.557770 419.318451,471.732513 426.507019,468.405579 
	C457.137177,454.229828 484.132812,435.190918 505.923798,409.181396 
	C508.096802,406.587738 510.001740,403.769470 512.727417,400.124207 
	C504.817810,400.124207 498.196625,400.007355 491.585846,400.217621 
	C490.175323,400.262482 488.405090,401.152557 487.471466,402.232941 
	C470.779816,421.548676 450.397491,435.987457 427.930878,447.738190 
	C421.683136,451.005920 415.967407,450.807098 409.495361,447.525757 
	C385.688660,435.455780 365.504883,418.771820 347.203735,399.666016 
	C333.117615,384.960510 319.849121,369.584229 313.390747,349.952332 
	C322.786346,348.205994 328.117249,352.116821 333.143005,360.455933 
	C352.368774,392.356842 379.119263,416.680969 411.741852,434.634460 
	C416.686646,437.355774 421.318268,437.433105 425.824280,434.419128 
	C438.380707,426.020416 450.892426,417.548645 463.235474,408.841614 
	C466.193909,406.754700 468.427917,403.640808 471.469513,400.511078 
	C449.214111,398.493225 447.903534,398.811066 430.718414,410.019653 
	C430.299866,410.292633 429.861389,410.541443 429.471497,410.851013 
	C421.958405,416.816833 414.279541,416.329620 407.024780,410.742065 
	C397.145355,403.133179 387.154907,395.579254 377.980072,387.164429 
	C361.864868,372.384186 350.271729,354.055634 339.560486,335.188477 
	C338.075958,332.573547 336.488373,331.357330 333.345673,331.416412 
	C325.528381,331.563538 317.702209,331.352325 309.882477,331.165192 
	C308.274658,331.126740 306.679321,330.566895 304.988007,329.447968 
	C303.370178,325.088074 301.528503,320.795898 300.184052,316.353302 
	C297.828461,308.569458 295.748169,300.701447 293.611542,292.852631 
	C292.473480,288.671997 290.362671,286.503784 285.498535,286.846619 
	C279.546661,287.266083 273.528778,286.639282 267.540588,286.672943 
	C248.064438,286.782410 228.588501,286.960022 209.113235,287.177643 
	C205.299011,287.220245 202.429169,286.568756 199.899887,282.913391 
	C194.935074,275.738159 185.266129,273.122559 177.141434,275.772919 
	C168.486191,278.596405 162.458740,286.374054 162.221497,295.025269 
	C161.978256,303.895203 167.467682,312.094482 175.754623,315.238983 
	C184.689468,318.629395 193.970291,316.293213 199.916611,308.599121 
	C202.084015,305.794647 204.205124,304.781311 207.729309,304.821503 
	C225.546036,305.024689 243.366348,304.914948 261.185394,304.914948 
	C266.653473,304.914948 272.121552,304.914948 277.723938,304.914948 
	C280.377502,313.538177 282.915283,321.785065 284.920227,330.797028 
M714.490601,303.566772 
	C699.200012,303.566772 683.909424,303.566772 668.545654,303.566772 
	C668.545654,330.344238 668.545654,356.539062 668.545654,382.630920 
	C689.004944,382.630920 709.069763,382.630920 729.155334,382.630920 
	C729.155334,377.352081 729.155334,372.424805 729.155334,366.970734 
	C716.276611,366.970734 703.714050,366.970734 691.269043,366.970734 
	C691.269043,361.361786 691.269043,356.295135 691.269043,350.728699 
	C703.171509,350.728699 714.726379,350.728699 726.238159,350.728699 
	C726.238159,345.293549 726.238159,340.374237 726.238159,334.976532 
	C714.338501,334.976532 702.765259,334.976532 691.149719,334.976532 
	C691.149719,329.542114 691.149719,324.601166 691.149719,319.203888 
	C703.952576,319.203888 716.526978,319.203888 729.169800,319.203888 
	C729.169800,313.838165 729.169800,308.934814 729.169800,303.567322 
	C724.408752,303.567322 719.946655,303.567322 714.490601,303.566772 
M654.954102,303.682861 
	C635.059448,303.682861 615.164734,303.682861 595.372620,303.682861 
	C595.372620,330.469727 595.372620,356.550629 595.372620,382.618347 
	C615.754028,382.618347 635.812134,382.618347 655.767700,382.618347 
	C655.767700,377.339661 655.767700,372.427399 655.767700,367.060730 
	C643.010254,367.060730 630.595032,367.060730 618.058228,367.060730 
	C618.058228,361.528839 618.058228,356.464630 618.058228,350.815857 
	C629.877502,350.815857 641.432190,350.815857 652.797485,350.815857 
	C652.797485,345.309906 652.797485,340.400604 652.797485,335.048218 
	C641.000244,335.048218 629.582397,335.048218 618.067810,335.048218 
	C618.067810,329.675903 618.067810,324.764008 618.067810,319.393311 
	C630.776611,319.393311 643.209290,319.393311 655.753235,319.393311 
	C655.753235,313.994385 655.753235,309.053131 654.954102,303.682861 
M521.847046,324.500122 
	C521.847046,343.897552 521.847046,363.294983 521.847046,382.584198 
	C542.636902,382.584198 562.675293,382.584198 582.575073,382.584198 
	C582.575073,377.280457 582.575073,372.375702 582.575073,366.983276 
	C569.652954,366.983276 557.078796,366.983276 544.859253,366.983276 
	C544.859253,361.412048 544.859253,356.346649 544.859253,350.885193 
	C556.686890,350.885193 568.106079,350.885193 579.575562,350.885193 
	C579.575562,345.439972 579.575562,340.416809 579.575562,334.911804 
	C567.617371,334.911804 556.057373,334.911804 544.852905,334.911804 
	C544.852905,329.500549 544.852905,324.591980 544.852905,319.271240 
	C557.666870,319.271240 570.085449,319.271240 582.712708,319.271240 
	C582.712708,313.927856 582.712708,309.020508 582.712708,303.841980 
	C562.414551,303.841980 542.336609,303.841980 521.846985,303.841980 
	C521.846985,310.555878 521.846985,317.028046 521.847046,324.500122 
M487.963501,335.500000 
	C487.963501,351.238922 487.963501,366.977875 487.963501,382.608276 
	C495.924652,382.608276 503.149994,382.608276 510.388916,382.608276 
	C510.388916,356.180756 510.388916,330.126953 510.388916,303.827271 
	C502.832825,303.827271 495.580139,303.827271 487.963501,303.827271 
	C487.963501,314.226074 487.963501,324.363037 487.963501,335.500000 
M449.448395,353.929657 
	C454.990784,351.100830 460.943390,348.844208 465.943817,345.259430 
	C469.837769,342.467834 469.424988,338.435852 466.026062,334.879944 
	C464.042206,332.804413 461.618073,331.149750 459.353943,329.274170 
	C460.405273,328.770294 461.380066,328.303101 462.926453,327.561951 
	C455.172913,325.751038 448.092712,324.097382 440.489227,322.321533 
	C441.899048,326.041901 443.057709,329.099640 444.216400,332.157349 
	C444.429413,331.700470 444.642426,331.243591 444.855408,330.786713 
	C448.965271,331.827026 453.410339,332.204468 457.102112,334.071411 
	C461.980164,336.538269 461.988556,341.196472 457.610931,344.413513 
	C455.637054,345.864075 453.367035,347.204163 451.028351,347.807953 
	C445.250885,349.299469 439.406830,350.756775 433.498077,351.470764 
	C420.436371,353.049164 407.546173,351.843811 395.307800,346.794891 
	C388.347443,343.923431 387.962677,339.019409 393.987183,334.522552 
	C395.550568,333.355560 397.440430,332.554291 399.280853,331.846527 
	C402.186218,330.729279 405.176544,329.833069 408.007935,328.884491 
	C400.694702,320.686310 392.580841,320.097168 383.770630,326.072449 
	C383.223816,326.443268 382.567383,326.650543 382.012238,327.011292 
	C377.380615,330.021484 372.009521,333.003204 372.426971,339.315796 
	C372.843994,345.621826 378.443207,348.093384 383.556793,350.177368 
	C404.788818,358.830292 426.574646,358.955383 449.448395,353.929657 
M363.167206,211.360138 
	C357.159760,206.043549 350.428741,204.276627 342.942566,207.743149 
	C336.583527,210.687744 332.883636,215.806183 332.329010,222.853470 
	C331.724762,230.531174 336.762634,237.934372 344.158112,240.667221 
	C351.729248,243.464996 360.013916,240.923752 364.983887,234.279175 
	C370.135559,227.391647 369.682831,219.738571 363.167206,211.360138 
M289.775146,408.589722 
	C298.852081,403.589966 302.524994,395.401123 299.607941,386.667450 
	C296.972260,378.776245 288.023804,373.273071 279.996124,374.606445 
	C269.323822,376.379089 262.445374,386.290283 264.877289,396.391235 
	C267.448730,407.071716 277.816803,412.433929 289.775146,408.589722 
M427.565094,321.874390 
	C427.465271,319.776123 427.365448,317.677887 427.251038,315.272919 
	C430.460083,315.082184 433.382538,314.908478 436.733154,314.709320 
	C432.156738,302.267517 427.723816,290.215790 422.862335,276.999023 
	C418.232758,290.238556 414.010681,302.312714 409.651917,314.777740 
	C412.730896,314.928802 415.170746,315.048523 417.429138,315.159332 
	C417.429138,326.801971 417.429138,338.165649 417.429138,349.605713 
	C421.054657,349.605713 424.766266,349.605713 427.557739,349.605713 
	C427.557739,340.347900 427.557739,331.577209 427.565094,321.874390 
M214.877106,313.685059 
	C205.879974,314.071106 199.839081,319.569000 199.807693,327.399902 
	C199.779800,334.360107 205.423050,340.579285 212.295029,341.161743 
	C220.183121,341.830292 226.990646,336.545349 227.881699,329.061279 
	C228.763168,321.657532 223.729599,315.454102 214.877106,313.685059 
M590.636475,422.097656 
	C590.735168,423.523834 590.833801,424.950012 590.948120,426.602142 
	C596.240540,426.602142 601.064087,426.689789 605.882874,426.576599 
	C610.386414,426.470825 614.544434,425.571869 616.461975,420.691040 
	C618.313049,415.979431 616.006653,412.786743 613.810669,411.266174 
	C614.375427,406.960449 615.726379,403.560669 614.976440,400.714447 
	C613.926392,396.729187 609.887634,395.887207 606.004761,395.879425 
	C601.030823,395.869476 596.056946,395.877014 590.636902,395.877014 
	C590.636902,404.573212 590.636902,412.876343 590.636475,422.097656 
M429.558960,364.966125 
	C429.285889,363.056427 429.012817,361.146698 428.757538,359.361450 
	C424.418579,359.361450 420.521606,359.361450 416.452484,359.361450 
	C415.923859,371.280609 415.410461,382.856262 414.887878,394.639221 
	C420.261993,394.639221 425.299438,394.639221 429.562958,394.639221 
	C429.562958,384.751678 429.562958,375.322601 429.558960,364.966125 
M722.894836,397.219238 
	C716.442505,396.602509 709.990112,395.985748 703.523926,395.367706 
	C703.523926,406.528046 703.523926,416.395569 703.523926,426.516998 
	C708.485779,426.516998 713.229126,427.155121 717.689148,426.305634 
	C720.981995,425.678436 724.788574,423.817383 726.823181,421.272369 
	C732.339478,414.372589 730.457825,403.323761 722.894836,397.219238 
M633.880005,407.514832 
	C633.880005,413.766357 633.880005,420.017853 633.880005,426.636261 
	C636.316833,426.522064 638.026611,426.441956 640.201660,426.340027 
	C640.201660,419.961273 640.201660,414.143982 640.201660,407.121094 
	C643.975891,413.123596 647.286133,417.896332 650.061401,422.962219 
	C652.174072,426.818573 654.875183,427.427582 658.541687,426.079407 
	C658.541687,415.973450 658.541687,406.072540 658.541687,395.839905 
	C656.490417,395.944489 654.770447,396.032166 652.642883,396.140625 
	C652.642883,402.661041 652.642883,408.660828 652.642883,415.902374 
	C648.799988,409.760590 645.410522,404.851990 642.574585,399.642090 
	C640.497375,395.826050 637.808228,395.236023 633.879944,396.357239 
	C633.879944,399.901337 633.879944,403.211090 633.880005,407.514832 
M574.290833,407.240082 
	C573.481750,407.046661 572.496521,407.079590 571.898987,406.614410 
	C570.493225,405.520142 569.272644,404.187988 567.977173,402.952118 
	C569.840515,402.206818 571.654358,401.142242 573.586792,400.843109 
	C574.643921,400.679504 576.512878,401.506592 576.961243,402.410126 
	C578.763489,406.042236 581.266724,404.844116 583.860901,404.282898 
	C583.816895,395.784302 573.155151,393.269745 567.256775,396.220184 
	C564.677673,397.510284 561.731384,400.771759 561.527649,403.342133 
	C561.325012,405.898193 563.834106,409.338898 566.117126,411.227356 
	C568.253906,412.994781 571.802063,412.938141 574.441711,414.258636 
	C576.082092,415.079224 577.187927,416.968414 578.533630,418.378021 
	C576.840820,419.499390 575.128235,421.547089 573.460144,421.511414 
	C571.297913,421.465210 568.174377,420.320831 567.233765,418.652069 
	C565.190369,415.026794 562.964539,416.068573 560.118408,416.884918 
	C560.734375,421.922211 563.180786,425.352722 567.833496,426.440277 
	C573.104919,427.672394 578.569946,427.997223 582.819397,423.640411 
	C586.952209,419.403168 585.840393,412.501984 580.633484,409.561279 
	C578.919739,408.593414 576.919739,408.132416 574.290833,407.240082 
M319.341064,214.055084 
	C314.874390,211.536453 310.175934,211.877640 306.925201,215.383209 
	C304.599091,217.891647 302.901001,221.948975 302.828857,225.355591 
	C302.719238,230.529175 307.569733,234.688461 312.445160,235.206528 
	C317.717896,235.766830 322.469299,233.062805 324.595490,228.291840 
	C326.783539,223.382156 325.191650,218.576416 319.341064,214.055084 
M236.529495,386.140259 
	C233.599930,390.772125 233.743103,395.377594 237.266891,399.507477 
	C240.247864,403.001160 244.150253,404.707062 248.863327,403.342621 
	C253.756424,401.926025 257.292145,397.660156 257.621643,392.908813 
	C257.925659,388.524963 254.929459,384.006897 250.356812,381.953796 
	C245.605103,379.820343 241.779037,380.858337 236.529495,386.140259 
M690.289917,411.501221 
	C690.289917,408.207672 690.289917,404.914093 690.289917,401.365967 
	C693.443115,401.183533 696.187805,401.024750 699.104614,400.855988 
	C699.104614,399.165741 699.104614,397.744781 699.104614,396.107025 
	C690.972290,396.107025 683.074219,396.107025 675.063477,396.107025 
	C675.063477,397.821136 675.063477,399.350708 675.063477,401.218811 
	C678.038818,401.218811 680.646545,401.218811 683.778931,401.218811 
	C683.778931,409.762573 683.778931,417.977356 683.778931,426.231628 
	C686.193726,426.231628 688.070374,426.231628 690.289368,426.231628 
	C690.289368,421.421021 690.289368,416.957428 690.289917,411.501221 
M664.847046,408.505920 
	C664.847046,414.421814 664.847046,420.337708 664.847046,426.200989 
	C667.278320,426.200989 669.148193,426.200989 671.029785,426.200989 
	C671.029785,415.950653 671.029785,406.087067 671.029785,396.260193 
	C668.863525,396.260193 666.986267,396.260193 664.846985,396.260193 
	C664.846985,400.255737 664.846985,403.884247 664.847046,408.505920 
z"/>
<path fill="#37699C" opacity="1.000000" stroke="none" 
	d="
M305.078217,330.247375 
	C306.679321,330.566895 308.274658,331.126740 309.882477,331.165192 
	C317.702209,331.352325 325.528381,331.563538 333.345673,331.416412 
	C336.488373,331.357330 338.075958,332.573547 339.560486,335.188477 
	C350.271729,354.055634 361.864868,372.384186 377.980072,387.164429 
	C387.154907,395.579254 397.145355,403.133179 407.024780,410.742065 
	C414.279541,416.329620 421.958405,416.816833 429.471497,410.851013 
	C429.861389,410.541443 430.299866,410.292633 430.718414,410.019653 
	C447.903534,398.811066 449.214111,398.493225 471.469513,400.511078 
	C468.427917,403.640808 466.193909,406.754700 463.235474,408.841614 
	C450.892426,417.548645 438.380707,426.020416 425.824280,434.419128 
	C421.318268,437.433105 416.686646,437.355774 411.741852,434.634460 
	C379.119263,416.680969 352.368774,392.356842 333.143005,360.455933 
	C328.117249,352.116821 322.786346,348.205994 312.492065,349.966248 
	C305.052917,350.014099 298.512451,350.048004 291.971954,350.081940 
	C281.814819,350.003601 271.642426,349.597656 261.511017,350.070618 
	C258.882538,350.193298 255.833862,352.588745 253.935852,354.772614 
	C249.799561,359.531799 246.157181,364.741425 242.546341,369.929413 
	C239.723557,373.985168 235.992065,375.902405 231.152802,375.851685 
	C212.018356,375.651062 192.883987,375.302185 173.749695,375.307739 
	C167.804474,375.309479 162.131348,375.066467 157.104248,380.681366 
	C149.084976,389.638245 134.599197,388.145355 126.603249,378.802612 
	C118.986259,369.902679 120.418419,356.663269 129.820847,349.057526 
	C138.829544,341.770355 152.718613,343.221527 159.547562,352.740936 
	C161.996445,356.154633 164.618805,357.455688 168.447174,357.431702 
	C187.737976,357.310730 207.029968,357.278992 226.317810,356.977142 
	C227.892624,356.952484 229.831131,355.451691 230.928009,354.093567 
	C234.686966,349.439362 238.130783,344.531555 241.722946,339.741547 
	C247.739853,331.718170 255.907379,329.488770 265.563934,330.366669 
	C271.976074,330.949615 278.465424,330.683197 285.483643,330.681274 
	C292.390778,330.459473 298.734497,330.353424 305.078217,330.247375 
z"/>
<path fill="#059BDB" opacity="1.000000" stroke="none" 
	d="
M528.386047,231.931335 
	C536.863464,231.994537 545.342224,232.167709 553.817749,232.068039 
	C557.320190,232.026871 559.399414,233.261337 559.231262,236.851257 
	C558.455078,253.427658 557.613159,270.001801 556.571960,286.562744 
	C556.515869,287.454559 554.470825,288.866821 553.292114,288.930206 
	C548.333252,289.196899 543.351746,289.042969 537.697754,289.042969 
	C538.719177,281.123993 540.106812,273.493042 540.554932,265.807281 
	C540.860474,260.567322 539.852844,255.250824 538.729004,249.573593 
	C527.027039,249.301590 516.028442,249.424530 505.029877,249.547485 
	C498.885315,249.726929 492.722198,249.687958 486.606628,250.208115 
	C484.555939,250.382523 482.088776,251.503983 480.742096,253.019226 
	C476.661041,257.611115 473.206970,262.759308 469.139343,267.364624 
	C467.716827,268.975159 465.222992,270.588928 463.214081,270.594330 
	C400.429230,270.763672 337.643463,270.828918 274.859222,270.572144 
	C269.243164,270.549194 265.523285,271.556152 261.590454,275.951080 
	C253.730408,284.734619 239.878250,283.804443 231.925125,274.869202 
	C224.448486,266.469299 225.438583,253.701508 234.136810,246.348129 
	C243.192307,238.692719 256.732208,240.052841 263.686432,249.667587 
	C265.628815,252.353073 267.612823,253.031235 270.678925,253.027390 
	C331.299133,252.951233 391.919495,252.936188 452.539551,253.057190 
	C456.095367,253.064285 458.503723,251.988235 460.563660,249.278030 
	C464.284454,244.382584 467.917419,239.388580 472.042053,234.849182 
	C473.488373,233.257431 476.238586,232.185913 478.452148,232.077606 
	C485.762482,231.719894 493.099640,231.910736 501.342621,231.902328 
	C510.967834,231.919540 519.676941,231.925430 528.386047,231.931335 
z"/>
<path fill="#37699B" opacity="1.000000" stroke="none" 
	d="
M528.235352,231.622467 
	C519.676941,231.925430 510.967834,231.919540 501.837463,231.914612 
	C503.716370,231.727631 506.016602,231.539673 509.058319,231.291122 
	C508.770142,228.101990 509.023041,224.697296 507.957397,221.773102 
	C507.438629,220.349564 504.467407,219.039429 502.588654,219.014572 
	C486.777069,218.805466 470.961426,218.891983 455.147034,218.917160 
	C437.340302,218.945496 419.533539,218.977539 401.727020,219.061966 
	C396.269440,219.087845 392.214478,216.465454 388.805573,212.549515 
	C386.403320,209.789963 384.512482,206.367813 381.634399,204.295502 
	C378.122437,201.766785 373.876892,198.864807 369.842010,198.697693 
	C353.221130,198.009323 336.559601,198.325851 319.913574,198.199966 
	C316.530212,198.174362 314.259766,199.300720 312.050781,202.163452 
	C305.926849,210.099731 295.702301,212.303299 286.920807,208.210770 
	C278.197968,204.145584 273.442047,195.093170 275.072052,185.657883 
	C276.629517,176.642502 284.444458,169.510513 294.179169,168.731979 
	C301.625671,168.136444 307.654907,171.068680 312.553894,176.818665 
	C313.929962,178.433807 316.521332,179.878586 318.579468,179.912064 
	C336.712860,180.206787 354.853088,180.313675 372.988342,180.150253 
	C380.317108,180.084213 386.354706,181.900314 390.722961,188.171982 
	C392.421539,190.610641 394.704163,192.639740 396.695709,194.877686 
	C400.617798,199.284943 405.515503,200.948822 411.391846,200.891785 
	C439.033661,200.623428 466.677185,200.524307 494.320251,200.392487 
	C503.624329,200.348114 512.928833,200.385468 522.548462,200.385468 
	C524.492432,211.245575 526.288513,221.279587 528.235352,231.622467 
z"/>
<path fill="#049BDD" opacity="1.000000" stroke="none" 
	d="
M292.009094,350.455444 
	C298.512451,350.048004 305.052917,350.014099 312.004150,350.069946 
	C319.849121,369.584229 333.117615,384.960510 347.203735,399.666016 
	C365.504883,418.771820 385.688660,435.455780 409.495361,447.525757 
	C415.967407,450.807098 421.683136,451.005920 427.930878,447.738190 
	C450.397491,435.987457 470.779816,421.548676 487.471466,402.232941 
	C488.405090,401.152557 490.175323,400.262482 491.585846,400.217621 
	C498.196625,400.007355 504.817810,400.124207 512.727417,400.124207 
	C510.001740,403.769470 508.096802,406.587738 505.923798,409.181396 
	C484.132812,435.190918 457.137177,454.229828 426.507019,468.405579 
	C419.318451,471.732513 412.523621,469.557770 406.451660,466.143829 
	C393.133026,458.655426 379.512756,451.405304 367.271149,442.358948 
	C337.847809,420.615509 314.237091,393.449188 296.479401,361.361664 
	C294.645538,358.047882 293.507294,354.349060 292.009094,350.455444 
z"/>
<path fill="#37699B" opacity="1.000000" stroke="none" 
	d="
M714.987549,303.567047 
	C719.946655,303.567322 724.408752,303.567322 729.169800,303.567322 
	C729.169800,308.934814 729.169800,313.838165 729.169800,319.203888 
	C716.526978,319.203888 703.952576,319.203888 691.149719,319.203888 
	C691.149719,324.601166 691.149719,329.542114 691.149719,334.976532 
	C702.765259,334.976532 714.338501,334.976532 726.238159,334.976532 
	C726.238159,340.374237 726.238159,345.293549 726.238159,350.728699 
	C714.726379,350.728699 703.171509,350.728699 691.269043,350.728699 
	C691.269043,356.295135 691.269043,361.361786 691.269043,366.970734 
	C703.714050,366.970734 716.276611,366.970734 729.155334,366.970734 
	C729.155334,372.424805 729.155334,377.352081 729.155334,382.630920 
	C709.069763,382.630920 689.004944,382.630920 668.545654,382.630920 
	C668.545654,356.539062 668.545654,330.344238 668.545654,303.566772 
	C683.909424,303.566772 699.200012,303.566772 714.987549,303.567047 
z"/>
<path fill="#37699B" opacity="1.000000" stroke="none" 
	d="
M655.353638,303.897339 
	C655.753235,309.053131 655.753235,313.994385 655.753235,319.393311 
	C643.209290,319.393311 630.776611,319.393311 618.067810,319.393311 
	C618.067810,324.764008 618.067810,329.675903 618.067810,335.048218 
	C629.582397,335.048218 641.000244,335.048218 652.797485,335.048218 
	C652.797485,340.400604 652.797485,345.309906 652.797485,350.815857 
	C641.432190,350.815857 629.877502,350.815857 618.058228,350.815857 
	C618.058228,356.464630 618.058228,361.528839 618.058228,367.060730 
	C630.595032,367.060730 643.010254,367.060730 655.767700,367.060730 
	C655.767700,372.427399 655.767700,377.339661 655.767700,382.618347 
	C635.812134,382.618347 615.754028,382.618347 595.372620,382.618347 
	C595.372620,356.550629 595.372620,330.469727 595.372620,303.682861 
	C615.164734,303.682861 635.059448,303.682861 655.353638,303.897339 
z"/>
<path fill="#36699B" opacity="1.000000" stroke="none" 
	d="
M521.847046,324.000183 
	C521.846985,317.028046 521.846985,310.555878 521.846985,303.841980 
	C542.336609,303.841980 562.414551,303.841980 582.712708,303.841980 
	C582.712708,309.020508 582.712708,313.927856 582.712708,319.271240 
	C570.085449,319.271240 557.666870,319.271240 544.852905,319.271240 
	C544.852905,324.591980 544.852905,329.500549 544.852905,334.911804 
	C556.057373,334.911804 567.617371,334.911804 579.575562,334.911804 
	C579.575562,340.416809 579.575562,345.439972 579.575562,350.885193 
	C568.106079,350.885193 556.686890,350.885193 544.859253,350.885193 
	C544.859253,356.346649 544.859253,361.412048 544.859253,366.983276 
	C557.078796,366.983276 569.652954,366.983276 582.575073,366.983276 
	C582.575073,372.375702 582.575073,377.280457 582.575073,382.584198 
	C562.675293,382.584198 542.636902,382.584198 521.847046,382.584198 
	C521.847046,363.294983 521.847046,343.897552 521.847046,324.000183 
z"/>
<path fill="#049ADB" opacity="1.000000" stroke="none" 
	d="
M305.033112,329.847656 
	C298.734497,330.353424 292.390778,330.459473 285.750061,330.298767 
	C282.915283,321.785065 280.377502,313.538177 277.723938,304.914948 
	C272.121552,304.914948 266.653473,304.914948 261.185394,304.914948 
	C243.366348,304.914948 225.546036,305.024689 207.729309,304.821503 
	C204.205124,304.781311 202.084015,305.794647 199.916611,308.599121 
	C193.970291,316.293213 184.689468,318.629395 175.754623,315.238983 
	C167.467682,312.094482 161.978256,303.895203 162.221497,295.025269 
	C162.458740,286.374054 168.486191,278.596405 177.141434,275.772919 
	C185.266129,273.122559 194.935074,275.738159 199.899887,282.913391 
	C202.429169,286.568756 205.299011,287.220245 209.113235,287.177643 
	C228.588501,286.960022 248.064438,286.782410 267.540588,286.672943 
	C273.528778,286.639282 279.546661,287.266083 285.498535,286.846619 
	C290.362671,286.503784 292.473480,288.671997 293.611542,292.852631 
	C295.748169,300.701447 297.828461,308.569458 300.184052,316.353302 
	C301.528503,320.795898 303.370178,325.088074 305.033112,329.847656 
z"/>
<path fill="#396A9C" opacity="1.000000" stroke="none" 
	d="
M487.963501,335.000000 
	C487.963501,324.363037 487.963501,314.226074 487.963501,303.827271 
	C495.580139,303.827271 502.832825,303.827271 510.388916,303.827271 
	C510.388916,330.126953 510.388916,356.180756 510.388916,382.608276 
	C503.149994,382.608276 495.924652,382.608276 487.963501,382.608276 
	C487.963501,366.977875 487.963501,351.238922 487.963501,335.000000 
z"/>
<path fill="#3E6FA0" opacity="1.000000" stroke="none" 
	d="
M449.043762,353.998413 
	C426.574646,358.955383 404.788818,358.830292 383.556793,350.177368 
	C378.443207,348.093384 372.843994,345.621826 372.426971,339.315796 
	C372.009521,333.003204 377.380615,330.021484 382.012238,327.011292 
	C382.567383,326.650543 383.223816,326.443268 383.770630,326.072449 
	C392.580841,320.097168 400.694702,320.686310 408.007935,328.884491 
	C405.176544,329.833069 402.186218,330.729279 399.280853,331.846527 
	C397.440430,332.554291 395.550568,333.355560 393.987183,334.522552 
	C387.962677,339.019409 388.347443,343.923431 395.307800,346.794891 
	C407.546173,351.843811 420.436371,353.049164 433.498077,351.470764 
	C439.406830,350.756775 445.250885,349.299469 451.028351,347.807953 
	C453.367035,347.204163 455.637054,345.864075 457.610931,344.413513 
	C461.988556,341.196472 461.980164,336.538269 457.102112,334.071411 
	C453.410339,332.204468 448.965271,331.827026 444.855408,330.786713 
	C444.642426,331.243591 444.429413,331.700470 444.216400,332.157349 
	C443.057709,329.099640 441.899048,326.041901 440.489227,322.321533 
	C448.092712,324.097382 455.172913,325.751038 462.926453,327.561951 
	C461.380066,328.303101 460.405273,328.770294 459.353943,329.274170 
	C461.618073,331.149750 464.042206,332.804413 466.026062,334.879944 
	C469.424988,338.435852 469.837769,342.467834 465.943817,345.259430 
	C460.943390,348.844208 454.990784,351.100830 449.043762,353.998413 
z"/>
<path fill="#386A9C" opacity="1.000000" stroke="none" 
	d="
M363.413391,211.626160 
	C369.682831,219.738571 370.135559,227.391647 364.983887,234.279175 
	C360.013916,240.923752 351.729248,243.464996 344.158112,240.667221 
	C336.762634,237.934372 331.724762,230.531174 332.329010,222.853470 
	C332.883636,215.806183 336.583527,210.687744 342.942566,207.743149 
	C350.428741,204.276627 357.159760,206.043549 363.413391,211.626160 
z"/>
<path fill="#386A9C" opacity="1.000000" stroke="none" 
	d="
M289.408203,408.739136 
	C277.816803,412.433929 267.448730,407.071716 264.877289,396.391235 
	C262.445374,386.290283 269.323822,376.379089 279.996124,374.606445 
	C288.023804,373.273071 296.972260,378.776245 299.607941,386.667450 
	C302.524994,395.401123 298.852081,403.589966 289.408203,408.739136 
z"/>
<path fill="#3B6C9E" opacity="1.000000" stroke="none" 
	d="
M427.561401,322.340454 
	C427.557739,331.577209 427.557739,340.347900 427.557739,349.605713 
	C424.766266,349.605713 421.054657,349.605713 417.429138,349.605713 
	C417.429138,338.165649 417.429138,326.801971 417.429138,315.159332 
	C415.170746,315.048523 412.730896,314.928802 409.651917,314.777740 
	C414.010681,302.312714 418.232758,290.238556 422.862335,276.999023 
	C427.723816,290.215790 432.156738,302.267517 436.733154,314.709320 
	C433.382538,314.908478 430.460083,315.082184 427.251038,315.272919 
	C427.365448,317.677887 427.465271,319.776123 427.561401,322.340454 
z"/>
<path fill="#396B9D" opacity="1.000000" stroke="none" 
	d="
M505.456726,249.614929 
	C516.028442,249.424530 527.027039,249.301590 538.375610,249.307419 
	C535.429688,249.436203 532.133728,249.436203 528.430115,249.436203 
	C527.122559,262.747620 525.867432,275.525757 524.575806,288.674622 
	C518.581848,288.674622 512.711426,288.674622 506.200439,288.674622 
	C506.381012,285.865417 506.526184,283.149109 506.735229,280.437744 
	C507.435303,271.359100 508.085602,262.275543 508.919556,253.209000 
	C509.150146,250.702347 508.652649,249.352188 505.456726,249.614929 
z"/>
<path fill="#069CDC" opacity="1.000000" stroke="none" 
	d="
M215.179993,313.732910 
	C223.729599,315.454102 228.763168,321.657532 227.881699,329.061279 
	C226.990646,336.545349 220.183121,341.830292 212.295029,341.161743 
	C205.423050,340.579285 199.779800,334.360107 199.807693,327.399902 
	C199.839081,319.569000 205.879974,314.071106 215.179993,313.732910 
z"/>
<path fill="#099EDE" opacity="1.000000" stroke="none" 
	d="
M590.636719,421.638550 
	C590.636902,412.876343 590.636902,404.573212 590.636902,395.877014 
	C596.056946,395.877014 601.030823,395.869476 606.004761,395.879425 
	C609.887634,395.887207 613.926392,396.729187 614.976440,400.714447 
	C615.726379,403.560669 614.375427,406.960449 613.810669,411.266174 
	C616.006653,412.786743 618.313049,415.979431 616.461975,420.691040 
	C614.544434,425.571869 610.386414,426.470825 605.882874,426.576599 
	C601.064087,426.689789 596.240540,426.602142 590.948120,426.602142 
	C590.833801,424.950012 590.735168,423.523834 590.636719,421.638550 
M597.855347,420.914001 
	C600.673523,420.984955 603.564453,421.460205 606.281860,420.971283 
	C607.847229,420.689697 609.132019,418.848785 610.543091,417.709778 
	C609.253479,416.264679 608.168762,413.916962 606.630432,413.567871 
	C603.694275,412.901520 600.499695,413.374451 597.240295,413.374451 
	C597.240295,415.968048 597.240295,418.104156 597.855347,420.914001 
M605.930725,407.894012 
	C607.018433,406.511322 608.106201,405.128662 609.193909,403.745972 
	C607.618958,402.852753 606.132202,401.502441 604.447693,401.177582 
	C602.140564,400.732635 599.683289,401.066345 597.422485,401.066345 
	C597.422485,403.785614 597.422485,405.698151 597.422485,407.980438 
	C600.161072,407.980438 602.606567,407.980438 605.930725,407.894012 
z"/>
<path fill="#396B9E" opacity="1.000000" stroke="none" 
	d="
M429.560974,365.429810 
	C429.562958,375.322601 429.562958,384.751678 429.562958,394.639221 
	C425.299438,394.639221 420.261993,394.639221 414.887878,394.639221 
	C415.410461,382.856262 415.923859,371.280609 416.452484,359.361450 
	C420.521606,359.361450 424.418579,359.361450 428.757538,359.361450 
	C429.012817,361.146698 429.285889,363.056427 429.560974,365.429810 
z"/>
<path fill="#13A0DD" opacity="1.000000" stroke="none" 
	d="
M723.229004,397.421631 
	C730.457825,403.323761 732.339478,414.372589 726.823181,421.272369 
	C724.788574,423.817383 720.981995,425.678436 717.689148,426.305634 
	C713.229126,427.155121 708.485779,426.516998 703.523926,426.516998 
	C703.523926,416.395569 703.523926,406.528046 703.523926,395.367706 
	C709.990112,395.985748 716.442505,396.602509 723.229004,397.421631 
M720.894165,419.500336 
	C724.077820,414.575348 724.198425,409.184204 721.615845,404.309326 
	C719.275635,399.891876 714.489624,401.239227 710.219238,401.189087 
	C710.219238,407.961212 710.219238,414.355255 710.219238,421.506042 
	C713.815491,420.970032 717.021118,420.492218 720.894165,419.500336 
z"/>
<path fill="#0D9FDE" opacity="1.000000" stroke="none" 
	d="
M633.880005,407.017822 
	C633.879944,403.211090 633.879944,399.901337 633.879944,396.357239 
	C637.808228,395.236023 640.497375,395.826050 642.574585,399.642090 
	C645.410522,404.851990 648.799988,409.760590 652.642883,415.902374 
	C652.642883,408.660828 652.642883,402.661041 652.642883,396.140625 
	C654.770447,396.032166 656.490417,395.944489 658.541687,395.839905 
	C658.541687,406.072540 658.541687,415.973450 658.541687,426.079407 
	C654.875183,427.427582 652.174072,426.818573 650.061401,422.962219 
	C647.286133,417.896332 643.975891,413.123596 640.201660,407.121094 
	C640.201660,414.143982 640.201660,419.961273 640.201660,426.340027 
	C638.026611,426.441956 636.316833,426.522064 633.880005,426.636261 
	C633.880005,420.017853 633.880005,413.766357 633.880005,407.017822 
z"/>
<path fill="#0FA1E0" opacity="1.000000" stroke="none" 
	d="
M574.670776,407.339844 
	C576.919739,408.132416 578.919739,408.593414 580.633484,409.561279 
	C585.840393,412.501984 586.952209,419.403168 582.819397,423.640411 
	C578.569946,427.997223 573.104919,427.672394 567.833496,426.440277 
	C563.180786,425.352722 560.734375,421.922211 560.118408,416.884918 
	C562.964539,416.068573 565.190369,415.026794 567.233765,418.652069 
	C568.174377,420.320831 571.297913,421.465210 573.460144,421.511414 
	C575.128235,421.547089 576.840820,419.499390 578.533630,418.378021 
	C577.187927,416.968414 576.082092,415.079224 574.441711,414.258636 
	C571.802063,412.938141 568.253906,412.994781 566.117126,411.227356 
	C563.834106,409.338898 561.325012,405.898193 561.527649,403.342133 
	C561.731384,400.771759 564.677673,397.510284 567.256775,396.220184 
	C573.155151,393.269745 583.816895,395.784302 583.860901,404.282898 
	C581.266724,404.844116 578.763489,406.042236 576.961243,402.410126 
	C576.512878,401.506592 574.643921,400.679504 573.586792,400.843109 
	C571.654358,401.142242 569.840515,402.206818 567.977173,402.952087 
	C569.272644,404.187988 570.493225,405.520142 571.898987,406.614410 
	C572.496521,407.079590 573.481750,407.046661 574.670776,407.339844 
z"/>
<path fill="#396B9E" opacity="1.000000" stroke="none" 
	d="
M319.668152,214.229462 
	C325.191650,218.576416 326.783539,223.382156 324.595490,228.291840 
	C322.469299,233.062805 317.717896,235.766830 312.445160,235.206528 
	C307.569733,234.688461 302.719238,230.529175 302.828857,225.355591 
	C302.901001,221.948975 304.599091,217.891647 306.925201,215.383209 
	C310.175934,211.877640 314.874390,211.536453 319.668152,214.229462 
z"/>
<path fill="#396B9E" opacity="1.000000" stroke="none" 
	d="
M236.771271,385.857117 
	C241.779037,380.858337 245.605103,379.820343 250.356812,381.953796 
	C254.929459,384.006897 257.925659,388.524963 257.621643,392.908813 
	C257.292145,397.660156 253.756424,401.926025 248.863327,403.342621 
	C244.150253,404.707062 240.247864,403.001160 237.266891,399.507477 
	C233.743103,395.377594 233.599930,390.772125 236.771271,385.857117 
z"/>
<path fill="#049CDE" opacity="1.000000" stroke="none" 
	d="
M690.289673,411.997528 
	C690.289368,416.957428 690.289368,421.421021 690.289368,426.231628 
	C688.070374,426.231628 686.193726,426.231628 683.778931,426.231628 
	C683.778931,417.977356 683.778931,409.762573 683.778931,401.218811 
	C680.646545,401.218811 678.038818,401.218811 675.063477,401.218811 
	C675.063477,399.350708 675.063477,397.821136 675.063477,396.107025 
	C683.074219,396.107025 690.972290,396.107025 699.104614,396.107025 
	C699.104614,397.744781 699.104614,399.165741 699.104614,400.855988 
	C696.187805,401.024750 693.443115,401.183533 690.289917,401.365967 
	C690.289917,404.914093 690.289917,408.207672 690.289673,411.997528 
z"/>
<path fill="#049CDE" opacity="1.000000" stroke="none" 
	d="
M664.847046,408.009338 
	C664.846985,403.884247 664.846985,400.255737 664.846985,396.260193 
	C666.986267,396.260193 668.863525,396.260193 671.029785,396.260193 
	C671.029785,406.087067 671.029785,415.950653 671.029785,426.200989 
	C669.148193,426.200989 667.278320,426.200989 664.847046,426.200989 
	C664.847046,420.337708 664.847046,414.421814 664.847046,408.009338 
z"/>
<path fill="#F2F6F8" opacity="1.000000" stroke="none" 
	d="
M597.547852,420.577148 
	C597.240295,418.104156 597.240295,415.968048 597.240295,413.374451 
	C600.499695,413.374451 603.694275,412.901520 606.630432,413.567871 
	C608.168762,413.916962 609.253479,416.264679 610.543091,417.709778 
	C609.132019,418.848785 607.847229,420.689697 606.281860,420.971283 
	C603.564453,421.460205 600.673523,420.984955 597.547852,420.577148 
z"/>
<path fill="#F2F6F8" opacity="1.000000" stroke="none" 
	d="
M605.491333,407.937225 
	C602.606567,407.980438 600.161072,407.980438 597.422485,407.980438 
	C597.422485,405.698151 597.422485,403.785614 597.422485,401.066345 
	C599.683289,401.066345 602.140564,400.732635 604.447693,401.177582 
	C606.132202,401.502441 607.618958,402.852753 609.193909,403.745972 
	C608.106201,405.128662 607.018433,406.511322 605.491333,407.937225 
z"/>
<path fill="#FBFCFD" opacity="1.000000" stroke="none" 
	d="
M720.560486,419.757385 
	C717.021118,420.492218 713.815491,420.970032 710.219238,421.506042 
	C710.219238,414.355255 710.219238,407.961212 710.219238,401.189087 
	C714.489624,401.239227 719.275635,399.891876 721.615845,404.309326 
	C724.198425,409.184204 724.077820,414.575348 720.560486,419.757385 
z"/>
</svg>